<mxfile host="app.diagrams.net" agent="Mozilla/5.0 (Windows NT 10.0; Win64; x64) AppleWebKit/537.36 (KHTML, like Gecko) Chrome/134.0.0.0 Safari/537.36" version="26.1.3">
  <diagram name="第 1 页" id="qYWm1upcZD0ejm9do1F3">
    <mxGraphModel dx="2927" dy="1138" grid="1" gridSize="10" guides="1" tooltips="1" connect="1" arrows="1" fold="1" page="1" pageScale="1" pageWidth="827" pageHeight="1169" math="0" shadow="0">
      <root>
        <mxCell id="0" />
        <mxCell id="1" parent="0" />
        <mxCell id="ThnQ_upPFrtXMVOAKWBl-52" value="" style="rounded=0;whiteSpace=wrap;html=1;fillColor=none;dashed=1;dashPattern=12 12;strokeColor=#009900;" parent="1" vertex="1">
          <mxGeometry x="-150" y="460" width="910" height="170" as="geometry" />
        </mxCell>
        <mxCell id="ThnQ_upPFrtXMVOAKWBl-54" value="" style="rounded=0;whiteSpace=wrap;html=1;fillColor=none;dashed=1;dashPattern=12 12;strokeColor=#99004D;" parent="1" vertex="1">
          <mxGeometry x="-150" y="900" width="910" height="230" as="geometry" />
        </mxCell>
        <mxCell id="ThnQ_upPFrtXMVOAKWBl-53" value="" style="rounded=0;whiteSpace=wrap;html=1;fillColor=none;dashed=1;dashPattern=12 12;strokeColor=#CC6600;" parent="1" vertex="1">
          <mxGeometry x="-150" y="640" width="910" height="230" as="geometry" />
        </mxCell>
        <mxCell id="ThnQ_upPFrtXMVOAKWBl-44" value="" style="rounded=0;whiteSpace=wrap;html=1;fillColor=none;dashed=1;dashPattern=12 12;strokeColor=light-dark(#0000FF,#EDEDED);" parent="1" vertex="1">
          <mxGeometry x="-150" y="100" width="910" height="350" as="geometry" />
        </mxCell>
        <mxCell id="_4gHRzFFrY_vJbP2sO1e-43" value="" style="edgeStyle=orthogonalEdgeStyle;rounded=0;orthogonalLoop=1;jettySize=auto;html=1;" parent="1" source="_4gHRzFFrY_vJbP2sO1e-26" target="_4gHRzFFrY_vJbP2sO1e-28" edge="1">
          <mxGeometry relative="1" as="geometry" />
        </mxCell>
        <mxCell id="_4gHRzFFrY_vJbP2sO1e-26" value="&lt;p style=&quot;text-align:left;&quot; class=&quot;MsoNormal&quot;&gt;&lt;span style=&quot;font-family: 宋体; background-color: transparent; color: light-dark(rgb(0, 0, 0), rgb(255, 255, 255)); text-align: center;&quot;&gt;&lt;font style=&quot;font-size: 20px;&quot;&gt;基于云边协同车联网的多维度协同计算卸载优化方法研究&lt;/font&gt;&lt;/span&gt;&lt;/p&gt;" style="rounded=0;whiteSpace=wrap;html=1;fillColor=#fff2cc;strokeColor=#d6b656;" parent="1" vertex="1">
          <mxGeometry x="30" y="50" width="550" height="40" as="geometry" />
        </mxCell>
        <mxCell id="_4gHRzFFrY_vJbP2sO1e-56" style="edgeStyle=orthogonalEdgeStyle;rounded=0;orthogonalLoop=1;jettySize=auto;html=1;exitX=0.5;exitY=1;exitDx=0;exitDy=0;" parent="1" source="_4gHRzFFrY_vJbP2sO1e-28" target="_4gHRzFFrY_vJbP2sO1e-30" edge="1">
          <mxGeometry relative="1" as="geometry">
            <Array as="points">
              <mxPoint x="305" y="170" />
              <mxPoint x="-20" y="170" />
            </Array>
          </mxGeometry>
        </mxCell>
        <mxCell id="_4gHRzFFrY_vJbP2sO1e-59" value="" style="edgeStyle=orthogonalEdgeStyle;rounded=0;orthogonalLoop=1;jettySize=auto;html=1;exitX=0.5;exitY=1;exitDx=0;exitDy=0;entryX=0.5;entryY=0;entryDx=0;entryDy=0;" parent="1" target="_4gHRzFFrY_vJbP2sO1e-32" edge="1">
          <mxGeometry relative="1" as="geometry">
            <mxPoint x="305.00000000000045" y="170" as="sourcePoint" />
            <mxPoint x="665" y="220" as="targetPoint" />
          </mxGeometry>
        </mxCell>
        <mxCell id="_4gHRzFFrY_vJbP2sO1e-60" value="" style="edgeStyle=orthogonalEdgeStyle;rounded=0;orthogonalLoop=1;jettySize=auto;html=1;" parent="1" source="_4gHRzFFrY_vJbP2sO1e-28" target="_4gHRzFFrY_vJbP2sO1e-31" edge="1">
          <mxGeometry relative="1" as="geometry" />
        </mxCell>
        <mxCell id="_4gHRzFFrY_vJbP2sO1e-28" value="&lt;p class=&quot;MsoNormal&quot;&gt;&lt;span style=&quot;mso-spacerun:&#39;yes&#39;;font-family:宋体;mso-ascii-font-family:&#39;Times New Roman&#39;;&lt;br/&gt;mso-hansi-font-family:&#39;Times New Roman&#39;;mso-bidi-font-family:&#39;Times New Roman&#39;;&quot;&gt;&lt;font style=&quot;font-size: 20px;&quot;&gt;绪论&lt;/font&gt;&lt;/span&gt;&lt;/p&gt;" style="rounded=0;whiteSpace=wrap;html=1;fillColor=#dae8fc;strokeColor=#6c8ebf;" parent="1" vertex="1">
          <mxGeometry x="205" y="120" width="200" height="40" as="geometry" />
        </mxCell>
        <mxCell id="ThnQ_upPFrtXMVOAKWBl-48" style="edgeStyle=orthogonalEdgeStyle;rounded=0;orthogonalLoop=1;jettySize=auto;html=1;exitX=0.5;exitY=1;exitDx=0;exitDy=0;entryX=0.5;entryY=0;entryDx=0;entryDy=0;" parent="1" source="_4gHRzFFrY_vJbP2sO1e-30" target="_4gHRzFFrY_vJbP2sO1e-62" edge="1">
          <mxGeometry relative="1" as="geometry">
            <Array as="points">
              <mxPoint x="-20" y="440" />
              <mxPoint x="305" y="440" />
            </Array>
          </mxGeometry>
        </mxCell>
        <mxCell id="_4gHRzFFrY_vJbP2sO1e-30" value="&lt;p class=&quot;MsoNormal&quot;&gt;&lt;span style=&quot;mso-spacerun:&#39;yes&#39;;font-family:宋体;mso-ascii-font-family:&#39;Times New Roman&#39;;&lt;br/&gt;mso-hansi-font-family:&#39;Times New Roman&#39;;mso-bidi-font-family:&#39;Times New Roman&#39;;&quot;&gt;&lt;font style=&quot;font-size: 20px;&quot;&gt;研究背景与意义&lt;/font&gt;&lt;/span&gt;&lt;/p&gt;" style="rounded=0;whiteSpace=wrap;html=1;fillColor=#dae8fc;strokeColor=#6c8ebf;" parent="1" vertex="1">
          <mxGeometry x="-120" y="240" width="200" height="40" as="geometry" />
        </mxCell>
        <mxCell id="_4gHRzFFrY_vJbP2sO1e-45" value="" style="edgeStyle=orthogonalEdgeStyle;rounded=0;orthogonalLoop=1;jettySize=auto;html=1;" parent="1" source="_4gHRzFFrY_vJbP2sO1e-31" target="_4gHRzFFrY_vJbP2sO1e-38" edge="1">
          <mxGeometry relative="1" as="geometry" />
        </mxCell>
        <mxCell id="_4gHRzFFrY_vJbP2sO1e-46" style="edgeStyle=orthogonalEdgeStyle;rounded=0;orthogonalLoop=1;jettySize=auto;html=1;exitX=0.5;exitY=1;exitDx=0;exitDy=0;entryX=0.5;entryY=0;entryDx=0;entryDy=0;" parent="1" source="_4gHRzFFrY_vJbP2sO1e-31" target="_4gHRzFFrY_vJbP2sO1e-36" edge="1">
          <mxGeometry relative="1" as="geometry" />
        </mxCell>
        <mxCell id="_4gHRzFFrY_vJbP2sO1e-53" style="edgeStyle=orthogonalEdgeStyle;rounded=0;orthogonalLoop=1;jettySize=auto;html=1;exitX=0.5;exitY=1;exitDx=0;exitDy=0;" parent="1" source="_4gHRzFFrY_vJbP2sO1e-31" target="_4gHRzFFrY_vJbP2sO1e-37" edge="1">
          <mxGeometry relative="1" as="geometry" />
        </mxCell>
        <mxCell id="_4gHRzFFrY_vJbP2sO1e-54" style="edgeStyle=orthogonalEdgeStyle;rounded=0;orthogonalLoop=1;jettySize=auto;html=1;entryX=0.5;entryY=0;entryDx=0;entryDy=0;exitX=0.5;exitY=1;exitDx=0;exitDy=0;" parent="1" source="_4gHRzFFrY_vJbP2sO1e-31" target="_4gHRzFFrY_vJbP2sO1e-34" edge="1">
          <mxGeometry relative="1" as="geometry" />
        </mxCell>
        <mxCell id="_4gHRzFFrY_vJbP2sO1e-31" value="&lt;p class=&quot;MsoNormal&quot;&gt;&lt;span style=&quot;mso-spacerun:&#39;yes&#39;;font-family:宋体;mso-ascii-font-family:&#39;Times New Roman&#39;;&lt;br/&gt;mso-hansi-font-family:&#39;Times New Roman&#39;;mso-bidi-font-family:&#39;Times New Roman&#39;;&quot;&gt;&lt;font style=&quot;font-size: 20px;&quot;&gt;国内外研究现状&lt;/font&gt;&lt;/span&gt;&lt;/p&gt;" style="rounded=0;whiteSpace=wrap;html=1;fillColor=#dae8fc;strokeColor=#6c8ebf;" parent="1" vertex="1">
          <mxGeometry x="205" y="190" width="200" height="40" as="geometry" />
        </mxCell>
        <mxCell id="_4gHRzFFrY_vJbP2sO1e-70" style="edgeStyle=orthogonalEdgeStyle;rounded=0;orthogonalLoop=1;jettySize=auto;html=1;entryX=0.5;entryY=0;entryDx=0;entryDy=0;exitX=0.5;exitY=1;exitDx=0;exitDy=0;" parent="1" source="_4gHRzFFrY_vJbP2sO1e-32" target="_4gHRzFFrY_vJbP2sO1e-62" edge="1">
          <mxGeometry relative="1" as="geometry">
            <Array as="points">
              <mxPoint x="630" y="440" />
              <mxPoint x="305" y="440" />
            </Array>
          </mxGeometry>
        </mxCell>
        <mxCell id="_4gHRzFFrY_vJbP2sO1e-32" value="&lt;p class=&quot;MsoNormal&quot;&gt;&lt;span style=&quot;mso-spacerun:&#39;yes&#39;;font-family:宋体;mso-ascii-font-family:&#39;Times New Roman&#39;;&lt;br/&gt;mso-hansi-font-family:&#39;Times New Roman&#39;;mso-bidi-font-family:&#39;Times New Roman&#39;;&quot;&gt;&lt;font style=&quot;font-size: 20px;&quot;&gt;研究内容与创新性&lt;/font&gt;&lt;/span&gt;&lt;/p&gt;" style="rounded=0;whiteSpace=wrap;html=1;fillColor=#dae8fc;strokeColor=#6c8ebf;" parent="1" vertex="1">
          <mxGeometry x="530" y="240" width="200" height="40" as="geometry" />
        </mxCell>
        <mxCell id="_4gHRzFFrY_vJbP2sO1e-66" value="" style="edgeStyle=orthogonalEdgeStyle;rounded=0;orthogonalLoop=1;jettySize=auto;html=1;" parent="1" source="_4gHRzFFrY_vJbP2sO1e-34" target="_4gHRzFFrY_vJbP2sO1e-62" edge="1">
          <mxGeometry relative="1" as="geometry">
            <Array as="points">
              <mxPoint x="140" y="440" />
              <mxPoint x="305" y="440" />
            </Array>
          </mxGeometry>
        </mxCell>
        <mxCell id="_4gHRzFFrY_vJbP2sO1e-34" value="&lt;p class=&quot;MsoNormal&quot;&gt;&lt;span style=&quot;mso-spacerun:&#39;yes&#39;;font-family:宋体;mso-ascii-font-family:&#39;Times New Roman&#39;;&lt;br/&gt;mso-hansi-font-family:&#39;Times New Roman&#39;;mso-bidi-font-family:&#39;Times New Roman&#39;;&quot;&gt;&lt;font style=&quot;font-size: 20px;&quot;&gt;车联网计算卸载国内外研究现状&lt;/font&gt;&lt;/span&gt;&lt;/p&gt;" style="rounded=0;whiteSpace=wrap;html=1;fillColor=#dae8fc;strokeColor=#6c8ebf;" parent="1" vertex="1">
          <mxGeometry x="100" y="280" width="80" height="140" as="geometry" />
        </mxCell>
        <mxCell id="_4gHRzFFrY_vJbP2sO1e-67" value="" style="edgeStyle=orthogonalEdgeStyle;rounded=0;orthogonalLoop=1;jettySize=auto;html=1;" parent="1" source="_4gHRzFFrY_vJbP2sO1e-36" target="_4gHRzFFrY_vJbP2sO1e-62" edge="1">
          <mxGeometry relative="1" as="geometry">
            <Array as="points">
              <mxPoint x="250" y="440" />
              <mxPoint x="305" y="440" />
            </Array>
          </mxGeometry>
        </mxCell>
        <mxCell id="_4gHRzFFrY_vJbP2sO1e-36" value="&lt;p class=&quot;MsoNormal&quot;&gt;&lt;span style=&quot;mso-spacerun:&#39;yes&#39;;font-family:宋体;mso-ascii-font-family:&#39;Times New Roman&#39;;&lt;br/&gt;mso-hansi-font-family:&#39;Times New Roman&#39;;mso-bidi-font-family:&#39;Times New Roman&#39;;&quot;&gt;&lt;font style=&quot;font-size: 20px;&quot;&gt;车联网服务缓存国内外研究现状&lt;/font&gt;&lt;/span&gt;&lt;/p&gt;" style="rounded=0;whiteSpace=wrap;html=1;fillColor=#dae8fc;strokeColor=#6c8ebf;" parent="1" vertex="1">
          <mxGeometry x="210" y="280" width="80" height="140" as="geometry" />
        </mxCell>
        <mxCell id="_4gHRzFFrY_vJbP2sO1e-69" value="" style="edgeStyle=orthogonalEdgeStyle;rounded=0;orthogonalLoop=1;jettySize=auto;html=1;" parent="1" source="_4gHRzFFrY_vJbP2sO1e-37" target="_4gHRzFFrY_vJbP2sO1e-62" edge="1">
          <mxGeometry relative="1" as="geometry">
            <Array as="points">
              <mxPoint x="470" y="440" />
              <mxPoint x="305" y="440" />
            </Array>
          </mxGeometry>
        </mxCell>
        <mxCell id="_4gHRzFFrY_vJbP2sO1e-37" value="&lt;p class=&quot;MsoNormal&quot;&gt;&lt;span style=&quot;mso-spacerun:&#39;yes&#39;;font-family:&#39;Times New Roman&#39;;mso-fareast-font-family:宋体;&quot;&gt;&lt;font style=&quot;font-size: 20px;&quot;&gt;NOMA&lt;/font&gt;&lt;font style=&quot;font-size: 20px;&quot; face=&quot;宋体&quot;&gt;技术&lt;/font&gt;&lt;/span&gt;&lt;font style=&quot;font-size: 20px;&quot;&gt;&lt;span style=&quot;font-family: 宋体;&quot;&gt;国内外&lt;/span&gt;&lt;span style=&quot;font-family: &amp;quot;Times New Roman&amp;quot;;&quot;&gt;&lt;font style=&quot;&quot; face=&quot;宋体&quot;&gt;研究现状&lt;/font&gt;&lt;/span&gt;&lt;/font&gt;&lt;/p&gt;" style="rounded=0;whiteSpace=wrap;html=1;fillColor=#dae8fc;strokeColor=#6c8ebf;" parent="1" vertex="1">
          <mxGeometry x="430" y="280" width="80" height="140" as="geometry" />
        </mxCell>
        <mxCell id="_4gHRzFFrY_vJbP2sO1e-68" value="" style="edgeStyle=orthogonalEdgeStyle;rounded=0;orthogonalLoop=1;jettySize=auto;html=1;" parent="1" source="_4gHRzFFrY_vJbP2sO1e-38" target="_4gHRzFFrY_vJbP2sO1e-62" edge="1">
          <mxGeometry relative="1" as="geometry">
            <Array as="points">
              <mxPoint x="360" y="440" />
              <mxPoint x="305" y="440" />
            </Array>
          </mxGeometry>
        </mxCell>
        <mxCell id="_4gHRzFFrY_vJbP2sO1e-38" value="&lt;p class=&quot;MsoNormal&quot;&gt;&lt;span style=&quot;font-family: 宋体; font-size: 20px;&quot;&gt;车联网资源分配国内外研究现状&lt;/span&gt;&lt;/p&gt;" style="rounded=0;whiteSpace=wrap;html=1;fillColor=#dae8fc;strokeColor=#6c8ebf;" parent="1" vertex="1">
          <mxGeometry x="320" y="280" width="80" height="140" as="geometry" />
        </mxCell>
        <mxCell id="_4gHRzFFrY_vJbP2sO1e-74" value="" style="edgeStyle=orthogonalEdgeStyle;rounded=0;orthogonalLoop=1;jettySize=auto;html=1;entryX=0.5;entryY=0;entryDx=0;entryDy=0;exitX=0.5;exitY=1;exitDx=0;exitDy=0;" parent="1" source="_4gHRzFFrY_vJbP2sO1e-62" target="_4gHRzFFrY_vJbP2sO1e-73" edge="1">
          <mxGeometry relative="1" as="geometry" />
        </mxCell>
        <mxCell id="_4gHRzFFrY_vJbP2sO1e-75" style="edgeStyle=orthogonalEdgeStyle;rounded=0;orthogonalLoop=1;jettySize=auto;html=1;entryX=0.5;entryY=0;entryDx=0;entryDy=0;exitX=0.5;exitY=1;exitDx=0;exitDy=0;" parent="1" source="_4gHRzFFrY_vJbP2sO1e-62" target="_4gHRzFFrY_vJbP2sO1e-71" edge="1">
          <mxGeometry relative="1" as="geometry" />
        </mxCell>
        <mxCell id="_4gHRzFFrY_vJbP2sO1e-76" value="" style="edgeStyle=orthogonalEdgeStyle;rounded=0;orthogonalLoop=1;jettySize=auto;html=1;" parent="1" source="_4gHRzFFrY_vJbP2sO1e-62" target="_4gHRzFFrY_vJbP2sO1e-72" edge="1">
          <mxGeometry relative="1" as="geometry" />
        </mxCell>
        <mxCell id="_4gHRzFFrY_vJbP2sO1e-62" value="&lt;p class=&quot;MsoNormal&quot;&gt;&lt;font style=&quot;font-size: 20px;&quot;&gt;&lt;span style=&quot;font-family: 宋体;&quot;&gt;云边协同车联网&lt;/span&gt;&lt;span style=&quot;font-family: 宋体;&quot;&gt;相关理论和技术&lt;/span&gt;&lt;/font&gt;&lt;/p&gt;" style="rounded=0;whiteSpace=wrap;html=1;fillColor=#d5e8d4;strokeColor=#82b366;" parent="1" vertex="1">
          <mxGeometry x="150" y="470" width="310" height="50" as="geometry" />
        </mxCell>
        <mxCell id="s9vfqO7-UXIcP0eHcMZj-1" style="edgeStyle=orthogonalEdgeStyle;rounded=0;orthogonalLoop=1;jettySize=auto;html=1;exitX=0.5;exitY=1;exitDx=0;exitDy=0;entryX=0.5;entryY=0;entryDx=0;entryDy=0;" edge="1" parent="1" source="_4gHRzFFrY_vJbP2sO1e-71" target="_4gHRzFFrY_vJbP2sO1e-82">
          <mxGeometry relative="1" as="geometry" />
        </mxCell>
        <mxCell id="_4gHRzFFrY_vJbP2sO1e-71" value="&lt;p class=&quot;MsoNormal&quot;&gt;&lt;span style=&quot;mso-spacerun:&#39;yes&#39;;font-family:宋体;mso-ascii-font-family:&#39;Times New Roman&#39;;&lt;br/&gt;mso-hansi-font-family:&#39;Times New Roman&#39;;mso-bidi-font-family:&#39;Times New Roman&#39;;&quot;&gt;&lt;font style=&quot;font-size: 20px;&quot;&gt;云边协同技术&lt;/font&gt;&lt;/span&gt;&lt;/p&gt;" style="rounded=0;whiteSpace=wrap;html=1;fillColor=#d5e8d4;strokeColor=#82b366;" parent="1" vertex="1">
          <mxGeometry x="-120" y="560" width="200" height="40" as="geometry" />
        </mxCell>
        <mxCell id="s9vfqO7-UXIcP0eHcMZj-4" style="edgeStyle=orthogonalEdgeStyle;rounded=0;orthogonalLoop=1;jettySize=auto;html=1;entryX=0.5;entryY=0;entryDx=0;entryDy=0;" edge="1" parent="1" source="_4gHRzFFrY_vJbP2sO1e-72" target="_4gHRzFFrY_vJbP2sO1e-82">
          <mxGeometry relative="1" as="geometry" />
        </mxCell>
        <mxCell id="_4gHRzFFrY_vJbP2sO1e-72" value="&lt;p class=&quot;MsoNormal&quot;&gt;&lt;font style=&quot;font-size: 20px;&quot;&gt;&lt;span style=&quot;font-family: 宋体;&quot;&gt;车联网&lt;/span&gt;&lt;span style=&quot;font-family: 宋体;&quot;&gt;技术&lt;/span&gt;&lt;/font&gt;&lt;/p&gt;" style="rounded=0;whiteSpace=wrap;html=1;fillColor=#d5e8d4;strokeColor=#82b366;" parent="1" vertex="1">
          <mxGeometry x="205" y="560" width="200" height="40" as="geometry" />
        </mxCell>
        <mxCell id="s9vfqO7-UXIcP0eHcMZj-2" style="edgeStyle=orthogonalEdgeStyle;rounded=0;orthogonalLoop=1;jettySize=auto;html=1;exitX=0.5;exitY=1;exitDx=0;exitDy=0;entryX=0.5;entryY=0;entryDx=0;entryDy=0;" edge="1" parent="1" source="_4gHRzFFrY_vJbP2sO1e-73" target="_4gHRzFFrY_vJbP2sO1e-82">
          <mxGeometry relative="1" as="geometry">
            <mxPoint x="310.0000000000002" y="720" as="targetPoint" />
          </mxGeometry>
        </mxCell>
        <mxCell id="_4gHRzFFrY_vJbP2sO1e-73" value="&lt;p class=&quot;MsoNormal&quot;&gt;&lt;span style=&quot;mso-spacerun:&#39;yes&#39;;font-family:宋体;mso-ascii-font-family:&#39;Times New Roman&#39;;&lt;br/&gt;mso-hansi-font-family:&#39;Times New Roman&#39;;mso-bidi-font-family:&#39;Times New Roman&#39;;&quot;&gt;&lt;font style=&quot;font-size: 20px;&quot;&gt;网络通信技术&lt;/font&gt;&lt;/span&gt;&lt;/p&gt;" style="rounded=0;whiteSpace=wrap;html=1;fillColor=#d5e8d4;strokeColor=#82b366;" parent="1" vertex="1">
          <mxGeometry x="520" y="560" width="200" height="40" as="geometry" />
        </mxCell>
        <mxCell id="ThnQ_upPFrtXMVOAKWBl-10" style="edgeStyle=orthogonalEdgeStyle;rounded=0;orthogonalLoop=1;jettySize=auto;html=1;entryX=0.5;entryY=0;entryDx=0;entryDy=0;" parent="1" source="_4gHRzFFrY_vJbP2sO1e-82" target="ThnQ_upPFrtXMVOAKWBl-5" edge="1">
          <mxGeometry relative="1" as="geometry" />
        </mxCell>
        <mxCell id="s9vfqO7-UXIcP0eHcMZj-6" style="edgeStyle=orthogonalEdgeStyle;rounded=0;orthogonalLoop=1;jettySize=auto;html=1;entryX=0.5;entryY=0;entryDx=0;entryDy=0;" edge="1" parent="1" source="_4gHRzFFrY_vJbP2sO1e-82" target="ThnQ_upPFrtXMVOAKWBl-3">
          <mxGeometry relative="1" as="geometry" />
        </mxCell>
        <mxCell id="s9vfqO7-UXIcP0eHcMZj-34" style="edgeStyle=orthogonalEdgeStyle;rounded=0;orthogonalLoop=1;jettySize=auto;html=1;exitX=0.5;exitY=1;exitDx=0;exitDy=0;entryX=0.5;entryY=0;entryDx=0;entryDy=0;" edge="1" parent="1" source="_4gHRzFFrY_vJbP2sO1e-82" target="s9vfqO7-UXIcP0eHcMZj-33">
          <mxGeometry relative="1" as="geometry">
            <Array as="points">
              <mxPoint x="305" y="720" />
              <mxPoint x="605" y="720" />
            </Array>
          </mxGeometry>
        </mxCell>
        <mxCell id="_4gHRzFFrY_vJbP2sO1e-82" value="&lt;p class=&quot;MsoNormal&quot;&gt;&lt;font style=&quot;font-size: 20px;&quot;&gt;&lt;span style=&quot;font-family: 宋体; background-color: transparent; color: light-dark(rgb(0, 0, 0), rgb(255, 255, 255));&quot;&gt;基于&lt;/span&gt;&lt;span style=&quot;font-family: 宋体; background-color: transparent; color: light-dark(rgb(0, 0, 0), rgb(255, 255, 255));&quot;&gt;&lt;font style=&quot;&quot;&gt;云边协同车联网的自适应计算卸载与资源分配策略&lt;/font&gt;&lt;/span&gt;&lt;/font&gt;&lt;/p&gt;" style="rounded=0;whiteSpace=wrap;html=1;fillColor=#ffe6cc;strokeColor=#d79b00;" parent="1" vertex="1">
          <mxGeometry x="35" y="650" width="540" height="50" as="geometry" />
        </mxCell>
        <mxCell id="ThnQ_upPFrtXMVOAKWBl-14" style="edgeStyle=orthogonalEdgeStyle;rounded=0;orthogonalLoop=1;jettySize=auto;html=1;entryX=0.5;entryY=0;entryDx=0;entryDy=0;exitX=0.5;exitY=1;exitDx=0;exitDy=0;" parent="1" source="ThnQ_upPFrtXMVOAKWBl-3" edge="1">
          <mxGeometry relative="1" as="geometry">
            <mxPoint x="305" y="819.9999999999998" as="targetPoint" />
          </mxGeometry>
        </mxCell>
        <mxCell id="ThnQ_upPFrtXMVOAKWBl-3" value="&lt;p class=&quot;MsoNormal&quot;&gt;&lt;span style=&quot;font-family: 宋体; background-color: transparent; color: light-dark(rgb(0, 0, 0), rgb(255, 255, 255));&quot;&gt;&lt;font style=&quot;font-size: 20px;&quot;&gt;引言&lt;/font&gt;&lt;/span&gt;&lt;/p&gt;" style="rounded=0;whiteSpace=wrap;html=1;fillColor=#ffe6cc;strokeColor=#d79b00;" parent="1" vertex="1">
          <mxGeometry x="-140" y="740" width="175" height="40" as="geometry" />
        </mxCell>
        <mxCell id="ThnQ_upPFrtXMVOAKWBl-17" style="edgeStyle=orthogonalEdgeStyle;rounded=0;orthogonalLoop=1;jettySize=auto;html=1;exitX=0.5;exitY=1;exitDx=0;exitDy=0;" parent="1" source="ThnQ_upPFrtXMVOAKWBl-5" edge="1">
          <mxGeometry relative="1" as="geometry">
            <mxPoint x="305" y="819.9999999999998" as="targetPoint" />
          </mxGeometry>
        </mxCell>
        <mxCell id="ThnQ_upPFrtXMVOAKWBl-5" value="&lt;p class=&quot;MsoNormal&quot;&gt;&lt;span style=&quot;font-family: 宋体; font-size: 20px;&quot;&gt;系统模型&lt;/span&gt;&lt;/p&gt;" style="rounded=0;whiteSpace=wrap;html=1;fillColor=#ffe6cc;strokeColor=#d79b00;" parent="1" vertex="1">
          <mxGeometry x="215" y="740" width="180" height="40" as="geometry" />
        </mxCell>
        <mxCell id="ThnQ_upPFrtXMVOAKWBl-41" value="&lt;p class=&quot;MsoNormal&quot;&gt;&lt;font face=&quot;宋体&quot;&gt;&lt;span style=&quot;font-size: 20px;&quot;&gt;总结与展望&lt;/span&gt;&lt;/font&gt;&lt;/p&gt;" style="rounded=0;whiteSpace=wrap;html=1;fillColor=#e1d5e7;strokeColor=#9673a6;" parent="1" vertex="1">
          <mxGeometry x="155" y="1150" width="300" height="50" as="geometry" />
        </mxCell>
        <mxCell id="s9vfqO7-UXIcP0eHcMZj-27" value="" style="edgeStyle=orthogonalEdgeStyle;rounded=0;orthogonalLoop=1;jettySize=auto;html=1;" edge="1" parent="1" source="s9vfqO7-UXIcP0eHcMZj-5" target="s9vfqO7-UXIcP0eHcMZj-26">
          <mxGeometry relative="1" as="geometry" />
        </mxCell>
        <mxCell id="s9vfqO7-UXIcP0eHcMZj-5" value="&lt;p class=&quot;MsoNormal&quot;&gt;&lt;span style=&quot;font-family: 宋体; background-color: transparent; color: light-dark(rgb(0, 0, 0), rgb(255, 255, 255));&quot;&gt;&lt;font style=&quot;font-size: 20px;&quot;&gt;仿真实验结果分析&lt;/font&gt;&lt;/span&gt;&lt;/p&gt;" style="rounded=0;whiteSpace=wrap;html=1;fillColor=#ffe6cc;strokeColor=#d79b00;" vertex="1" parent="1">
          <mxGeometry x="140" y="820" width="330" height="40" as="geometry" />
        </mxCell>
        <mxCell id="s9vfqO7-UXIcP0eHcMZj-47" style="edgeStyle=orthogonalEdgeStyle;rounded=0;orthogonalLoop=1;jettySize=auto;html=1;entryX=0.5;entryY=0;entryDx=0;entryDy=0;exitX=0.5;exitY=1;exitDx=0;exitDy=0;" edge="1" parent="1" source="s9vfqO7-UXIcP0eHcMZj-15" target="s9vfqO7-UXIcP0eHcMZj-20">
          <mxGeometry relative="1" as="geometry">
            <Array as="points">
              <mxPoint x="-52" y="1050" />
              <mxPoint x="305" y="1050" />
            </Array>
          </mxGeometry>
        </mxCell>
        <mxCell id="s9vfqO7-UXIcP0eHcMZj-15" value="&lt;p class=&quot;MsoNormal&quot;&gt;&lt;span style=&quot;font-family: 宋体; background-color: transparent; color: light-dark(rgb(0, 0, 0), rgb(255, 255, 255));&quot;&gt;&lt;font style=&quot;font-size: 20px;&quot;&gt;引言&lt;/font&gt;&lt;/span&gt;&lt;/p&gt;" style="rounded=0;whiteSpace=wrap;html=1;fillColor=#f8cecc;strokeColor=#b85450;" vertex="1" parent="1">
          <mxGeometry x="-140" y="985" width="175" height="40" as="geometry" />
        </mxCell>
        <mxCell id="s9vfqO7-UXIcP0eHcMZj-48" value="" style="edgeStyle=orthogonalEdgeStyle;rounded=0;orthogonalLoop=1;jettySize=auto;html=1;" edge="1" parent="1" source="s9vfqO7-UXIcP0eHcMZj-20" target="ThnQ_upPFrtXMVOAKWBl-41">
          <mxGeometry relative="1" as="geometry" />
        </mxCell>
        <mxCell id="s9vfqO7-UXIcP0eHcMZj-20" value="&lt;p class=&quot;MsoNormal&quot;&gt;&lt;span style=&quot;font-family: 宋体; background-color: transparent; color: light-dark(rgb(0, 0, 0), rgb(255, 255, 255));&quot;&gt;&lt;font style=&quot;font-size: 20px;&quot;&gt;仿真实验结果分析&lt;/font&gt;&lt;/span&gt;&lt;/p&gt;" style="rounded=0;whiteSpace=wrap;html=1;fillColor=#f8cecc;strokeColor=#b85450;" vertex="1" parent="1">
          <mxGeometry x="140" y="1070" width="330" height="40" as="geometry" />
        </mxCell>
        <mxCell id="s9vfqO7-UXIcP0eHcMZj-28" style="edgeStyle=orthogonalEdgeStyle;rounded=0;orthogonalLoop=1;jettySize=auto;html=1;exitX=0.5;exitY=1;exitDx=0;exitDy=0;entryX=0.5;entryY=0;entryDx=0;entryDy=0;" edge="1" parent="1" source="s9vfqO7-UXIcP0eHcMZj-26" target="s9vfqO7-UXIcP0eHcMZj-15">
          <mxGeometry relative="1" as="geometry" />
        </mxCell>
        <mxCell id="s9vfqO7-UXIcP0eHcMZj-29" style="edgeStyle=orthogonalEdgeStyle;rounded=0;orthogonalLoop=1;jettySize=auto;html=1;exitX=0.5;exitY=1;exitDx=0;exitDy=0;entryX=0.5;entryY=0;entryDx=0;entryDy=0;" edge="1" parent="1" source="s9vfqO7-UXIcP0eHcMZj-26">
          <mxGeometry relative="1" as="geometry">
            <mxPoint x="305" y="985" as="targetPoint" />
          </mxGeometry>
        </mxCell>
        <mxCell id="s9vfqO7-UXIcP0eHcMZj-41" style="edgeStyle=orthogonalEdgeStyle;rounded=0;orthogonalLoop=1;jettySize=auto;html=1;entryX=0.5;entryY=0;entryDx=0;entryDy=0;" edge="1" parent="1" source="s9vfqO7-UXIcP0eHcMZj-26" target="s9vfqO7-UXIcP0eHcMZj-40">
          <mxGeometry relative="1" as="geometry" />
        </mxCell>
        <mxCell id="s9vfqO7-UXIcP0eHcMZj-26" value="&lt;p class=&quot;MsoNormal&quot;&gt;&lt;span style=&quot;font-size: 20px; text-indent: 28px; font-family: 宋体;&quot;&gt;基于&lt;/span&gt;&lt;span style=&quot;font-size: 20px; text-indent: 28px;&quot; lang=&quot;EN-US&quot;&gt;NOMA&lt;/span&gt;&lt;span style=&quot;font-size: 20px; text-indent: 28px; font-family: 宋体;&quot;&gt;云边协同车联网的联合缓存与部分计算卸载策略&lt;/span&gt;&lt;/p&gt;" style="rounded=0;whiteSpace=wrap;html=1;fillColor=#f8cecc;strokeColor=#b85450;" vertex="1" parent="1">
          <mxGeometry x="35" y="895" width="540" height="50" as="geometry" />
        </mxCell>
        <mxCell id="s9vfqO7-UXIcP0eHcMZj-35" style="edgeStyle=orthogonalEdgeStyle;rounded=0;orthogonalLoop=1;jettySize=auto;html=1;exitX=0.5;exitY=1;exitDx=0;exitDy=0;entryX=0.5;entryY=0;entryDx=0;entryDy=0;" edge="1" parent="1" source="s9vfqO7-UXIcP0eHcMZj-33">
          <mxGeometry relative="1" as="geometry">
            <mxPoint x="305" y="819.9999999999998" as="targetPoint" />
            <Array as="points">
              <mxPoint x="605" y="800" />
              <mxPoint x="305" y="800" />
            </Array>
          </mxGeometry>
        </mxCell>
        <mxCell id="s9vfqO7-UXIcP0eHcMZj-33" value="&lt;p class=&quot;MsoNormal&quot;&gt;&lt;span style=&quot;font-family: 宋体; font-size: 20px;&quot;&gt;自适应计算卸载与资源分配算法设计与实现&lt;/span&gt;&lt;/p&gt;" style="rounded=0;whiteSpace=wrap;html=1;fillColor=#ffe6cc;strokeColor=#d79b00;" vertex="1" parent="1">
          <mxGeometry x="470" y="740" width="270" height="50" as="geometry" />
        </mxCell>
        <mxCell id="s9vfqO7-UXIcP0eHcMZj-43" style="edgeStyle=orthogonalEdgeStyle;rounded=0;orthogonalLoop=1;jettySize=auto;html=1;entryX=0.5;entryY=0;entryDx=0;entryDy=0;" edge="1" parent="1" source="s9vfqO7-UXIcP0eHcMZj-39" target="s9vfqO7-UXIcP0eHcMZj-20">
          <mxGeometry relative="1" as="geometry" />
        </mxCell>
        <mxCell id="s9vfqO7-UXIcP0eHcMZj-39" value="&lt;p class=&quot;MsoNormal&quot;&gt;&lt;span style=&quot;font-family: 宋体; font-size: 20px;&quot;&gt;系统模型&lt;/span&gt;&lt;/p&gt;" style="rounded=0;whiteSpace=wrap;html=1;fillColor=#f8cecc;strokeColor=#b85450;" vertex="1" parent="1">
          <mxGeometry x="215" y="985" width="180" height="40" as="geometry" />
        </mxCell>
        <mxCell id="s9vfqO7-UXIcP0eHcMZj-45" style="edgeStyle=orthogonalEdgeStyle;rounded=0;orthogonalLoop=1;jettySize=auto;html=1;entryX=0.5;entryY=0;entryDx=0;entryDy=0;" edge="1" parent="1" source="s9vfqO7-UXIcP0eHcMZj-40" target="s9vfqO7-UXIcP0eHcMZj-20">
          <mxGeometry relative="1" as="geometry">
            <Array as="points">
              <mxPoint x="605" y="1050" />
              <mxPoint x="305" y="1050" />
            </Array>
          </mxGeometry>
        </mxCell>
        <mxCell id="s9vfqO7-UXIcP0eHcMZj-40" value="&lt;p class=&quot;MsoNormal&quot;&gt;&lt;span style=&quot;color: light-dark(rgb(0, 0, 0), rgb(255, 255, 255)); font-size: 20px; background-color: transparent; text-indent: 21pt; font-family: 宋体;&quot;&gt;联合缓存与部分计算卸载&lt;/span&gt;&lt;span style=&quot;color: light-dark(rgb(0, 0, 0), rgb(255, 255, 255)); font-size: 20px; background-color: transparent; text-indent: 21pt; font-family: 宋体;&quot;&gt;算法设计与实现&lt;/span&gt;&lt;/p&gt;" style="rounded=0;whiteSpace=wrap;html=1;fillColor=#f8cecc;strokeColor=#b85450;" vertex="1" parent="1">
          <mxGeometry x="470" y="985" width="270" height="50" as="geometry" />
        </mxCell>
      </root>
    </mxGraphModel>
  </diagram>
</mxfile>
